<mxfile host="app.diagrams.net" agent="Mozilla/5.0 (Windows NT 10.0; Win64; x64) AppleWebKit/537.36 (KHTML, like Gecko) Chrome/138.0.0.0 Safari/537.36" version="28.0.6">
  <diagram name="Pagina-1" id="LnBPzJFV1Yb2QJKZsH5P">
    <mxGraphModel dx="984" dy="547" grid="1" gridSize="10" guides="1" tooltips="1" connect="1" arrows="1" fold="1" page="1" pageScale="1" pageWidth="827" pageHeight="1169" math="0" shadow="0">
      <root>
        <mxCell id="0" />
        <mxCell id="1" parent="0" />
        <mxCell id="t_9FS-SwC9AlhfTxTmEV-24" value="" style="rounded=0;whiteSpace=wrap;html=1;dashed=1;strokeColor=#838383;" vertex="1" parent="1">
          <mxGeometry x="40" y="250" width="440" height="430" as="geometry" />
        </mxCell>
        <mxCell id="t_9FS-SwC9AlhfTxTmEV-1" value="" style="rounded=1;whiteSpace=wrap;html=1;fillColor=#f5f5f5;fontColor=#333333;strokeColor=#666666;shadow=1;" vertex="1" parent="1">
          <mxGeometry x="60" y="260" width="260" height="290" as="geometry" />
        </mxCell>
        <mxCell id="t_9FS-SwC9AlhfTxTmEV-2" value="&lt;b&gt;Deployment&lt;/b&gt;" style="text;html=1;align=center;verticalAlign=middle;whiteSpace=wrap;rounded=0;" vertex="1" parent="1">
          <mxGeometry x="145" y="260" width="90" height="30" as="geometry" />
        </mxCell>
        <mxCell id="t_9FS-SwC9AlhfTxTmEV-3" value="" style="rounded=1;whiteSpace=wrap;html=1;fillColor=#74BEF0;strokeColor=#10739e;shadow=1;" vertex="1" parent="1">
          <mxGeometry x="92.5" y="290" width="195" height="240" as="geometry" />
        </mxCell>
        <mxCell id="t_9FS-SwC9AlhfTxTmEV-4" value="&lt;b&gt;Pod template&lt;/b&gt;" style="text;html=1;align=center;verticalAlign=middle;whiteSpace=wrap;rounded=0;" vertex="1" parent="1">
          <mxGeometry x="149.5" y="290" width="90" height="30" as="geometry" />
        </mxCell>
        <mxCell id="t_9FS-SwC9AlhfTxTmEV-7" value="" style="rounded=1;whiteSpace=wrap;html=1;fillColor=#b1ddf0;strokeColor=#10739e;shadow=1;" vertex="1" parent="1">
          <mxGeometry x="114" y="320" width="150" height="80" as="geometry" />
        </mxCell>
        <mxCell id="t_9FS-SwC9AlhfTxTmEV-6" value="&lt;b&gt;Containers&lt;/b&gt;" style="text;html=1;align=center;verticalAlign=middle;whiteSpace=wrap;rounded=0;" vertex="1" parent="1">
          <mxGeometry x="144.5" y="320" width="90" height="30" as="geometry" />
        </mxCell>
        <mxCell id="t_9FS-SwC9AlhfTxTmEV-8" value="nginx" style="shape=parallelogram;perimeter=parallelogramPerimeter;whiteSpace=wrap;html=1;fixedSize=1;" vertex="1" parent="1">
          <mxGeometry x="149" y="350" width="91" height="20" as="geometry" />
        </mxCell>
        <mxCell id="t_9FS-SwC9AlhfTxTmEV-9" value="git-sync" style="shape=parallelogram;perimeter=parallelogramPerimeter;whiteSpace=wrap;html=1;fixedSize=1;" vertex="1" parent="1">
          <mxGeometry x="145" y="370" width="90" height="20" as="geometry" />
        </mxCell>
        <mxCell id="t_9FS-SwC9AlhfTxTmEV-10" value="" style="rounded=1;whiteSpace=wrap;html=1;fillColor=#fad7ac;strokeColor=#b46504;shadow=1;" vertex="1" parent="1">
          <mxGeometry x="119" y="410" width="150" height="110" as="geometry" />
        </mxCell>
        <mxCell id="t_9FS-SwC9AlhfTxTmEV-11" value="html-volume" style="shape=parallelogram;perimeter=parallelogramPerimeter;whiteSpace=wrap;html=1;fixedSize=1;" vertex="1" parent="1">
          <mxGeometry x="145" y="440" width="100" height="20" as="geometry" />
        </mxCell>
        <mxCell id="t_9FS-SwC9AlhfTxTmEV-13" value="&lt;b&gt;Volumes&lt;/b&gt;" style="text;html=1;align=center;verticalAlign=middle;whiteSpace=wrap;rounded=0;" vertex="1" parent="1">
          <mxGeometry x="149" y="410" width="90" height="30" as="geometry" />
        </mxCell>
        <mxCell id="t_9FS-SwC9AlhfTxTmEV-16" value="&lt;font style=&quot;font-size: 9px; color: rgb(255, 11, 11);&quot;&gt;app:portfolio&lt;/font&gt;" style="text;html=1;align=center;verticalAlign=middle;whiteSpace=wrap;rounded=0;fillColor=none;" vertex="1" parent="1">
          <mxGeometry x="234.5" y="295" width="50" height="20" as="geometry" />
        </mxCell>
        <mxCell id="t_9FS-SwC9AlhfTxTmEV-17" value="tls-secret" style="shape=parallelogram;perimeter=parallelogramPerimeter;whiteSpace=wrap;html=1;fixedSize=1;" vertex="1" parent="1">
          <mxGeometry x="144.5" y="460" width="101" height="20" as="geometry" />
        </mxCell>
        <mxCell id="t_9FS-SwC9AlhfTxTmEV-18" value="nginx-config" style="shape=parallelogram;perimeter=parallelogramPerimeter;whiteSpace=wrap;html=1;fixedSize=1;" vertex="1" parent="1">
          <mxGeometry x="145" y="480" width="100" height="20" as="geometry" />
        </mxCell>
        <mxCell id="t_9FS-SwC9AlhfTxTmEV-20" value="" style="rounded=1;whiteSpace=wrap;html=1;fillColor=#5478EF;fontColor=#ffffff;strokeColor=#001DBC;shadow=1;" vertex="1" parent="1">
          <mxGeometry x="330" y="520.004761904762" width="120" height="60" as="geometry" />
        </mxCell>
        <mxCell id="t_9FS-SwC9AlhfTxTmEV-21" value="&lt;b&gt;Secret&lt;/b&gt;" style="text;html=1;align=center;verticalAlign=middle;whiteSpace=wrap;rounded=0;" vertex="1" parent="1">
          <mxGeometry x="345" y="520" width="90" height="30" as="geometry" />
        </mxCell>
        <mxCell id="t_9FS-SwC9AlhfTxTmEV-22" value="&lt;b&gt;ConfigMap&lt;/b&gt;" style="text;html=1;align=center;verticalAlign=middle;whiteSpace=wrap;rounded=0;" vertex="1" parent="1">
          <mxGeometry x="345" y="545" width="90" height="30" as="geometry" />
        </mxCell>
        <mxCell id="t_9FS-SwC9AlhfTxTmEV-25" style="edgeStyle=orthogonalEdgeStyle;rounded=0;orthogonalLoop=1;jettySize=auto;html=1;exitX=0.5;exitY=1;exitDx=0;exitDy=0;entryX=0;entryY=0.583;entryDx=0;entryDy=0;entryPerimeter=0;strokeColor=#9D9D9D;" edge="1" parent="1" source="t_9FS-SwC9AlhfTxTmEV-10" target="t_9FS-SwC9AlhfTxTmEV-20">
          <mxGeometry relative="1" as="geometry" />
        </mxCell>
        <mxCell id="t_9FS-SwC9AlhfTxTmEV-26" value="" style="rounded=1;whiteSpace=wrap;html=1;fillColor=#d5e8d4;strokeColor=#82b366;" vertex="1" parent="1">
          <mxGeometry x="330" y="630" width="120" height="40" as="geometry" />
        </mxCell>
        <mxCell id="t_9FS-SwC9AlhfTxTmEV-27" value="&lt;b&gt;Service&lt;/b&gt;" style="text;html=1;align=center;verticalAlign=middle;whiteSpace=wrap;rounded=0;shadow=1;" vertex="1" parent="1">
          <mxGeometry x="345" y="635" width="90" height="30" as="geometry" />
        </mxCell>
        <mxCell id="t_9FS-SwC9AlhfTxTmEV-28" value="&lt;font style=&quot;color: rgb(147, 147, 147);&quot;&gt;Defined with .yaml manifest&lt;/font&gt;" style="text;html=1;align=center;verticalAlign=middle;whiteSpace=wrap;rounded=0;" vertex="1" parent="1">
          <mxGeometry x="330" y="260" width="125" height="30" as="geometry" />
        </mxCell>
        <mxCell id="t_9FS-SwC9AlhfTxTmEV-29" value="" style="rounded=0;whiteSpace=wrap;html=1;dashed=1;strokeColor=#838383;" vertex="1" parent="1">
          <mxGeometry x="500" y="510" width="300" height="170" as="geometry" />
        </mxCell>
        <mxCell id="t_9FS-SwC9AlhfTxTmEV-30" value="ReplicaSet" style="rounded=1;whiteSpace=wrap;html=1;fillColor=#f5f5f5;strokeColor=#666666;fontColor=#333333;shadow=1;" vertex="1" parent="1">
          <mxGeometry x="520" y="560" width="120" height="40" as="geometry" />
        </mxCell>
        <mxCell id="t_9FS-SwC9AlhfTxTmEV-31" value="Endpoints" style="rounded=1;whiteSpace=wrap;html=1;fillColor=#d5e8d4;strokeColor=#82b366;shadow=1;" vertex="1" parent="1">
          <mxGeometry x="520" y="630" width="120" height="40" as="geometry" />
        </mxCell>
        <mxCell id="t_9FS-SwC9AlhfTxTmEV-32" style="edgeStyle=orthogonalEdgeStyle;rounded=0;orthogonalLoop=1;jettySize=auto;html=1;strokeColor=#9D9D9D;" edge="1" parent="1" source="t_9FS-SwC9AlhfTxTmEV-26" target="t_9FS-SwC9AlhfTxTmEV-31">
          <mxGeometry relative="1" as="geometry" />
        </mxCell>
        <mxCell id="t_9FS-SwC9AlhfTxTmEV-34" value="&lt;font color=&quot;#939393&quot;&gt;created at runtime&lt;/font&gt;" style="text;html=1;align=center;verticalAlign=middle;whiteSpace=wrap;rounded=0;" vertex="1" parent="1">
          <mxGeometry x="515" y="515" width="125" height="30" as="geometry" />
        </mxCell>
        <mxCell id="t_9FS-SwC9AlhfTxTmEV-35" value="" style="rounded=0;whiteSpace=wrap;html=1;dashed=1;strokeColor=#666666;fillColor=#f5f5f5;fontColor=#333333;" vertex="1" parent="1">
          <mxGeometry x="680" y="560" width="110" height="110" as="geometry" />
        </mxCell>
        <mxCell id="t_9FS-SwC9AlhfTxTmEV-36" value="Label selector" style="text;html=1;align=center;verticalAlign=middle;whiteSpace=wrap;rounded=0;" vertex="1" parent="1">
          <mxGeometry x="690" y="560" width="90" height="20" as="geometry" />
        </mxCell>
        <mxCell id="t_9FS-SwC9AlhfTxTmEV-37" value="Pods" style="rounded=1;whiteSpace=wrap;html=1;shadow=1;fillColor=#74BEF0;" vertex="1" parent="1">
          <mxGeometry x="695" y="585" width="80" height="70" as="geometry" />
        </mxCell>
        <mxCell id="t_9FS-SwC9AlhfTxTmEV-38" value="&lt;font style=&quot;font-size: 9px; color: rgb(255, 11, 11);&quot;&gt;app:portfolio&lt;/font&gt;" style="text;html=1;align=center;verticalAlign=middle;whiteSpace=wrap;rounded=0;fillColor=none;" vertex="1" parent="1">
          <mxGeometry x="725" y="585" width="50" height="20" as="geometry" />
        </mxCell>
        <mxCell id="t_9FS-SwC9AlhfTxTmEV-40" value="" style="endArrow=classic;html=1;rounded=0;entryX=0;entryY=0.5;entryDx=0;entryDy=0;exitX=1;exitY=0.5;exitDx=0;exitDy=0;strokeColor=#9D9D9D;" edge="1" parent="1" source="t_9FS-SwC9AlhfTxTmEV-26" target="t_9FS-SwC9AlhfTxTmEV-35">
          <mxGeometry width="50" height="50" relative="1" as="geometry">
            <mxPoint x="450" y="550" as="sourcePoint" />
            <mxPoint x="500" y="500" as="targetPoint" />
            <Array as="points">
              <mxPoint x="500" y="615" />
            </Array>
          </mxGeometry>
        </mxCell>
        <mxCell id="t_9FS-SwC9AlhfTxTmEV-41" style="edgeStyle=orthogonalEdgeStyle;rounded=0;orthogonalLoop=1;jettySize=auto;html=1;exitX=0.5;exitY=1;exitDx=0;exitDy=0;entryX=0;entryY=0.75;entryDx=0;entryDy=0;strokeColor=#9D9D9D;" edge="1" parent="1" source="t_9FS-SwC9AlhfTxTmEV-1" target="t_9FS-SwC9AlhfTxTmEV-30">
          <mxGeometry relative="1" as="geometry" />
        </mxCell>
        <mxCell id="t_9FS-SwC9AlhfTxTmEV-42" style="edgeStyle=orthogonalEdgeStyle;rounded=0;orthogonalLoop=1;jettySize=auto;html=1;entryX=0.007;entryY=0.183;entryDx=0;entryDy=0;entryPerimeter=0;strokeColor=#9D9D9D;" edge="1" parent="1" source="t_9FS-SwC9AlhfTxTmEV-30" target="t_9FS-SwC9AlhfTxTmEV-35">
          <mxGeometry relative="1" as="geometry" />
        </mxCell>
      </root>
    </mxGraphModel>
  </diagram>
</mxfile>
